<svg width="34" height="34" viewBox="0 0 34 34"  xmlns="http://www.w3.org/2000/svg">
<path fill-rule="evenodd" clip-rule="evenodd" d="M16.1394 4.5332H22.4484C25.6146 4.5332 28.1917 7.01108 28.1917 10.058V19.5387C28.1917 20.0678 27.7439 20.4962 27.195 20.4962C26.6436 20.4962 26.197 20.0678 26.197 19.5387V10.058C26.197 8.06946 24.5156 6.45075 22.4484 6.45075H16.1394C14.0645 6.45075 12.3766 8.07444 12.3766 10.0704V11.2297C12.3766 11.7589 11.9313 12.1872 11.3799 12.1872C10.8297 12.1872 10.3832 11.7589 10.3832 11.2297V10.0704C10.3832 7.0173 12.9655 4.5332 16.1394 4.5332ZM18.3438 14.9426C18.1579 15.1332 17.9126 15.2278 17.666 15.2278C17.4244 15.2278 17.1816 15.1356 16.9945 14.9501L16.0825 14.0449C15.7083 13.6726 15.7046 13.0662 16.0751 12.6889C16.4443 12.3116 17.0477 12.3091 17.4244 12.6814L18.3376 13.5879C18.7118 13.959 18.7155 14.5666 18.3438 14.9426ZM16.0777 21.2836C15.7059 20.9076 15.7072 20.3012 16.0801 19.9276L18.0626 17.9441H5.4874C4.9608 17.9441 4.53333 17.5145 4.53333 16.9853C4.53333 16.4561 4.9608 16.0253 5.4874 16.0253H20.3735C20.7601 16.0253 21.1082 16.2594 21.2557 16.6192C21.4031 16.9778 21.3201 17.3912 21.0475 17.6652L17.427 21.2861C17.2411 21.4716 16.997 21.565 16.7529 21.565C16.5089 21.565 16.2635 21.4716 16.0777 21.2836ZM27.1943 22.9408C26.6442 22.9408 26.1976 23.3704 26.1976 23.8996C26.1976 25.8956 24.5097 27.5193 22.4347 27.5193H16.1257C14.0598 27.5193 12.3771 25.9006 12.3771 23.912V22.7403C12.3771 22.2111 11.9305 21.7816 11.3804 21.7816C10.8303 21.7816 10.3837 22.2111 10.3837 22.7403V23.912C10.3837 26.9589 12.9596 29.4368 16.1257 29.4368H22.4347C25.6086 29.4368 28.191 26.9527 28.191 23.8996C28.191 23.3704 27.7444 22.9408 27.1943 22.9408Z" />
</svg>
